<?xml version="1.0" encoding="iso-8859-1"?>
<!-- Uploaded to: SVG Repo, www.svgrepo.com, Generator: SVG Repo Mixer Tools -->
<svg height="800px" width="800px" version="1.1" id="Layer_1" xmlns="http://www.w3.org/2000/svg" xmlns:xlink="http://www.w3.org/1999/xlink" 
	 viewBox="0 0 392.663 392.663" xml:space="preserve">
<path style="fill:#56ACE0;" d="M21.818,291.685c0,6.012,4.848,10.925,10.925,10.925h327.111c6.012,0,10.925-4.848,10.925-10.925
	V246.82H21.818V291.685z"/>
<path style="fill:#FFFFFF;" d="M370.78,32.517c0-6.012-4.848-10.925-10.925-10.925H32.743c-6.012,0-10.925,4.848-10.925,10.925
	v192.517H370.78L370.78,32.517L370.78,32.517z"/>
<path style="fill:#FFC10D;" d="M43.604,43.507V77.77h44.024c6.012,0,10.925,4.848,10.925,10.925c0,6.077-4.848,10.925-10.925,10.925
	H43.604v27.345h24.113c6.012,0,10.925,4.848,10.925,10.925c0,6.012-4.848,10.925-10.925,10.925H43.604v54.562h305.325V43.507H43.604
	z"/>
<g>
	<path style="fill:#194F82;" d="M191.451,286.19h9.632c6.012,0,10.925-4.848,10.925-10.925c0-6.012-4.848-10.925-10.925-10.925
		h-9.632c-6.012,0-10.925,4.848-10.925,10.925S185.374,286.19,191.451,286.19z"/>
	<path style="fill:#194F82;" d="M359.855,0H32.743C14.707,0,0.032,14.675,0.032,32.711v259.168
		c0,18.101,14.675,32.711,32.711,32.711h84.04l-14.739,46.222H82.651c-6.012,0-10.925,4.848-10.925,10.925
		s4.848,10.925,10.925,10.925h227.362c6.012,0,10.925-4.848,10.925-10.925c0-6.012-4.849-10.925-10.925-10.925h-15.968
		L279.24,324.59h80.679c18.036,0,32.711-14.675,32.711-32.711V32.711C392.566,14.675,377.891,0,359.855,0z M124.929,370.747
		l14.804-46.158h116.558l14.869,46.158H124.929z M370.78,291.879c0,6.012-4.848,10.925-10.925,10.925H32.743
		c-6.012,0-10.925-4.848-10.925-10.925v-44.865H370.78L370.78,291.879L370.78,291.879z M370.78,225.164H21.818V32.711
		c0-6.012,4.848-10.925,10.925-10.925h327.111c6.012,0,10.925,4.848,10.925,10.925v192.517l0,0V225.164z"/>
</g>
<polygon style="fill:#FFC10D;" points="139.733,324.525 124.929,370.747 271.095,370.747 256.291,324.525 "/>
<path style="fill:#56ACE0;" d="M155.313,142.804l29.802-23.596V79.386c-19.653,4.978-34.133,22.82-34.133,43.895
	C151.046,130.198,152.469,136.792,155.313,142.804z"/>
<g>
	<path style="fill:#FFFFFF;" d="M169.147,159.612c7.758,5.818,17.261,9.051,27.152,9.051c11.96,0,23.208-4.655,31.547-12.735
		l-30.836-18.23L169.147,159.612z"/>
	<path style="fill:#FFFFFF;" d="M206.966,79.257v38.917l32.388,19.135c1.487-4.59,2.263-9.244,2.263-14.093
		C241.552,102.077,226.812,84.17,206.966,79.257z"/>
</g>
<path style="fill:#194F82;" d="M196.299,58.117c-36.008,0-65.228,29.22-65.228,65.228s29.22,65.164,65.228,65.164
	s65.228-29.22,65.228-65.228S232.307,58.117,196.299,58.117z M196.299,168.663c-9.891,0-19.394-3.168-27.152-9.051l27.798-22.044
	l30.836,18.23C219.507,164.073,208.259,168.663,196.299,168.663z M185.18,79.451v39.822l-29.802,23.596
	c-2.844-6.012-4.331-12.606-4.331-19.459C151.046,102.206,165.527,84.364,185.18,79.451z M239.354,137.374l-32.388-19.135V79.257
	c19.846,4.784,34.586,22.691,34.586,44.024C241.552,128.129,240.905,132.848,239.354,137.374z"/>
</svg>